<?xml version="1.0" encoding="UTF-8"?>
<svg id="Layer_1" data-name="Layer 1" xmlns="http://www.w3.org/2000/svg" viewBox="0 0 239.08 373.71">
  <defs>
    <style>
      .cls-1 {
        fill: #005c9d;
      }

      .cls-2 {
        fill: #121315;
      }

      .cls-3 {
        fill: #df2922;
      }

      .cls-4 {
        fill: #f5eb18;
      }

      .cls-5 {
        fill: #0b0706;
      }

      .cls-6 {
        fill: #231f20;
      }
    </style>
  </defs>
  <g id="Layer_2" data-name="Layer 2">
    <g>
      <path class="cls-3" d="m34.7,161.21c1.12-1.31,2.4-2.46,3.62-3.67,3.47-3.42,6.91-6.87,10.43-10.23,4.35-4.14,8.6-8.39,12.84-12.63,4.85-4.84,9.67-9.71,14.51-14.55,6.64-6.63,13.29-13.26,19.93-19.88.98-.97,1.96-1.93,3.19-2.59.31-.17.45-.41.08-.72-.31-.26-.58-.57-.86-.85.03-.05.07-.1.1-.15.38.26.77.5,1.13.79,1.85,1.51,3.44,3.29,5.11,4.99,5.82,5.93,11.63,11.87,17.44,17.81,1.5,1.54,3,3.08,4.51,4.61,3.81,3.86,7.61,7.73,11.43,11.58,7.69,7.74,15.39,15.47,23.09,23.21.12.12.22.25.33.37-.11.36-.37.61-.64.85-.87.78-1.8,1.49-2.62,2.32-9.05,9.01-18.09,18.03-27.13,27.04-4.23,4.21-8.44,8.45-12.71,12.62-7.09,6.93-14.1,13.93-21.14,20.91-.37.37-.7.46-1.07.01-.28-.33-.58-.63-.89-.93-11.48-11.55-23.11-22.97-34.51-34.61-2.14-2.18-4.34-4.31-6.53-6.44-6.15-5.98-12.01-12.23-18.32-18.04-.58-.54-1.02-1.12-1.34-1.82Z"/>
      <rect class="cls-3" x="128.1" y="81.03" width="4.5" height="90.92" transform="translate(-51.26 129.22) rotate(-45)"/>
      <path class="cls-2" d="m34.7,161.21c.32.7.75,1.29,1.34,1.82,6.31,5.81,12.18,12.07,18.32,18.04,2.19,2.13,4.39,4.25,6.53,6.44,11.4,11.64,23.02,23.06,34.51,34.61.3.3.61.61.89.93.38.45.7.35,1.07-.01,7.04-6.98,14.06-13.98,21.14-20.91,4.27-4.17,8.48-8.41,12.71-12.62,9.04-9.01,18.08-18.04,27.13-27.04.83-.82,5.28-5.06,6.15-5.83.27-.24-.11.36,0,0,.7.68.92,2.38,1.62,3.05.26.25.7-1.24.42-.98-.6.55-4.02,4.46-4.59,5.03-1.19,1.2-2.35,2.43-3.55,3.63-.98.97-.96.93.06,1.91,1.98,1.9,3.93,3.83,5.89,5.76.4.4.75.86,1.13,1.28.35.38.66.4,1.06-.01,1.71-1.77,3.45-3.51,5.17-5.26.21-.21,2.63-3.06,2.98-2.78,1.24,1.02,3.14,1.8,4.3,2.9.01.05-3.07,3.18-3.02,3.18.04.02.05.06.03.1-.12.02-.18.1-.19.22-.08.08-.16.15-.24.23-.17.06-.3.16-.34.34-.64.63-1.28,1.25-1.92,1.88-.09,0-.14.04-.13.13-.16.17-.32.33-.48.5-.15.05-.26.15-.3.3-.73.75-1.45,1.51-2.19,2.26-.23.23-.34.41-.05.7,2.62,2.64,5.22,5.29,7.83,7.93.1.1.22.18.33.27,0,.02,0,.04.01.05.03.02.06.02.09.04.11.12.21.23.32.35,0,.04.02.08.02.12.06.28-.05.5-.24.7-.67.68-1.36,1.35-2.02,2.03-.33.34-.56.21-.82-.09-3.22-3.62-6.79-6.9-10.11-10.42-.9-.95-1.94-1.76-2.79-2.73-2.38-2.71-5.07-5.1-7.54-7.71-.34-.36-.55-.4-.98-.04-1.82,1.48-3.38,3.22-5.03,4.87-9.27,9.21-18.49,18.45-27.76,27.66-3.93,3.91-7.84,7.82-11.75,11.75-3.3,3.32-6.64,6.59-9.99,9.86-.44.43-.27.63.05.96,4.05,4.03,8.1,8.04,12.12,12.1,2.74,2.76,5.43,5.57,8.14,8.37.2.2.36.44.54.67-.06.04-.07.08-.01.13-.49.53-.94,1.1-1.53,1.53,0,0,0,0,0,0-.44.39-.87.79-1.31,1.18-.15-.62-.51-1.1-.96-1.55-1.28-1.25-2.53-2.53-3.8-3.8-5.18-5.19-10.37-10.37-15.55-15.56-.86-.86-.83-.87-1.62-.08-5.2,5.2-10.41,10.4-15.62,15.59-.44.44-.92.83-1.37,1.25-.38.35-.42.65.08.96.38.23.76.5,1.08.81,1.18,1.12,2.21,2.39,3.44,3.47,1.72,1.51,3.27,3.2,4.96,4.75,1.34,1.22,2.45,2.67,3.75,3.93,1.88,1.83,3.76,3.66,5.48,5.65.2.23.37.43.32.75-.29-.02-.45-.24-.64-.43-7.03-7.05-14.06-14.1-21.1-21.13-.45-.45-.44-.65.01-1.1,5.83-5.78,11.63-11.6,17.44-17.41.15-.15.45-.26.27-.57,0,0,.02-.01.02-.01h-.02c-1.18-1.14-2.42-2.23-3.52-3.45-2.02-2.23-4.19-4.31-6.34-6.4-1.98-1.93-3.9-3.92-5.88-5.86-1.96-1.92-3.87-3.89-5.84-5.8-2.84-2.76-5.59-5.62-8.36-8.45-1.12-1.14-1.26-1.19-2.25.04-.72.9-1.55,1.66-2.35,2.47-1.4,1.43-2.79,2.88-4.24,4.24-3.57,3.34-6.94,6.88-10.43,10.3-.31.31-.42.08-.61-.1-1.42-1.42-2.84-2.84-4.26-4.25-.8-.79-.79-.77.03-1.55,5.72-5.49,11.31-11.12,16.91-16.72q.76-.76-.01-1.52c-7.97-7.97-15.94-15.94-23.92-23.91-.17-.17-.31-.41-.52-.49-.85-.33-.51-.66-.07-1.08.82-.77,1.61-1.56,2.41-2.35Z"/>
      <path class="cls-1" d="m97.96,266.72c.06-.32-.12-.52-.32-.75-1.72-1.99-3.6-3.82-5.48-5.65-1.3-1.26-2.41-2.71-3.75-3.93-1.69-1.55-3.24-3.24-4.96-4.75-1.24-1.08-2.26-2.35-3.44-3.47-.32-.31-.7-.58-1.08-.81-.5-.3-.47-.6-.08-.96.46-.42.93-.82,1.37-1.25,5.21-5.19,10.41-10.39,15.62-15.59.78-.78.75-.78,1.62.08,5.18,5.19,10.37,10.37,15.55,15.56,1.27,1.27,2.52,2.55,3.8,3.8.45.45.82.92.96,1.55-1.38,1.5-2.91,2.86-4.36,4.28-.1-.06.18-.26-.04-.21-.21.05-.42.22-.58.39-1.16,1.2-2.51,2.18-3.64,3.42-1.39,1.53-3.15,2.7-4.53,4.23-1.34,1.49-2.8,2.85-4.17,4.31-.41.44-.88.71-1.48.72-.14-.53-.4-.92-1-.98Z"/>
      <path class="cls-2" d="m98.96,267.7c.6-.01,1.07-.28,1.48-.72,1.36-1.46,2.83-2.82,4.17-4.31,1.38-1.53,3.13-2.7,4.53-4.23,1.12-1.24,2.48-2.22,3.64-3.42.16-.17.37-.34.58-.39.22-.05-.05.15.04.21-.66.86-1.55,1.48-2.28,2.27-3.53,3.76-7.31,7.26-10.95,10.91-.61.61-.81.56-1.21-.31Z"/>
      <path class="cls-3" d="m179.32,189.33l5.28-5.28c-.3.98-4.36,5.07-5.28,5.28Z"/>
      <path class="cls-3" d="m12.7,181.31c.59.64,1.82,1.43,2.33,2.92-1.44-.7-1.59-2.39-2.33-2.92Z"/>
      <path class="cls-3" d="m172.41,178.05c.04-.16.15-.26.3-.3-.06.14-.16.25-.3.3Z"/>
      <path class="cls-3" d="m175.24,175.23c.05-.18.18-.28.34-.34-.07.16-.19.27-.34.34Z"/>
      <path class="cls-3" d="m120.59,247.84c-.06-.05-.05-.09.01-.13.1-.02.06.06.06.1,0,.01-.05.02-.07.03Z"/>
      <path class="cls-3" d="m173.19,177.25c0-.09.04-.14.13-.13-.05.05-.09.09-.13.13Z"/>
      <path class="cls-3" d="m175.82,174.67c0-.12.07-.19.19-.22.02.14-.06.2-.19.22Z"/>
      <polygon class="cls-1" points="93.94 226.09 93.96 226.08 93.94 226.09 93.94 226.09"/>
      <path class="cls-3" d="m175.98,174.36s-.08-.02-.09-.07c.03,0,.07-.01.1-.02,0,.03,0,.06,0,.09Z"/>
      <path class="cls-3" d="m178.44,189.3s-.06-.02-.09-.04c-.01,0,0-.03-.01-.05.03.01.06.02.09.04.01,0,0,.03.01.05Z"/>
      <polygon class="cls-3" points="119.07 249.37 119.06 249.37 119.08 249.39 119.07 249.37"/>
      <path class="cls-3" d="m178.78,189.77s-.02-.08-.02-.12c.08.03.06.07.02.12Z"/>
    </g>
    <rect class="cls-4" x="172.23" y="170.74" width="15.36" height="18.57" transform="translate(-74.6 179.94) rotate(-45)"/>
    <path class="cls-6" d="m165.94,162.26l-71.95-71.95L165.94,18.37l71.95,71.95-71.95,71.95Zm-57.8-71.95l57.8,57.8,57.8-57.8-57.8-57.8-57.8,57.8Z"/>
    <path class="cls-6" d="m167.13,342.75l-71.95-71.95,71.95-71.95,71.95,71.95-71.95,71.95Zm-57.8-71.95l57.8,57.8,57.8-57.8-57.8-57.8-57.8,57.8Z"/>
  </g>
  <polygon class="cls-5" points="183.98 363.86 0 179.88 182.94 0 189.95 7.13 14.2 179.94 191.81 357.54 183.98 363.86"/>
  <path class="cls-5" d="m100.13,280L1.28,181.16l98.85-98.85,98.85,98.85-98.85,98.85ZM15.42,181.16l84.7,84.7,84.7-84.7-84.7-84.7L15.42,181.16Z"/>
</svg>