<?xml version="1.0" encoding="UTF-8"?>
<svg id="Layer_1" data-name="Layer 1" xmlns="http://www.w3.org/2000/svg" viewBox="0 0 365.13 325">
  <defs>
    <style>
      .cls-1 {
        fill: #fff;
      }

      .cls-2 {
        fill: #005c9d;
      }

      .cls-3 {
        fill: #df2922;
      }

      .cls-4 {
        fill: #f5eb18;
      }
    </style>
  </defs>
  <path d="m100.41,228.4l-35.36-35.36L258.09,0l35.36,35.36L100.41,228.4Zm-21.21-35.36l21.21,21.21L279.31,35.36l-21.21-21.21L79.2,193.04Z"/>
  <g>
    <rect class="cls-2" x="26.59" y="200.27" width="84" height="52" transform="translate(180.09 17.77) rotate(45)"/>
    <path d="m79.9,281.43L13.44,214.96l43.84-43.84,66.47,66.47-43.84,43.84Zm-52.33-66.47l52.33,52.33,29.7-29.7-52.33-52.33-29.7,29.7Z"/>
  </g>
  <g>
    <rect class="cls-4" x="26.72" y="245.7" width="30" height="46" transform="translate(202.22 49.2) rotate(45)"/>
    <path d="m36.06,302.64l-28.28-28.28,39.6-39.6,28.28,28.28-39.6,39.6Zm-14.14-28.28l14.14,14.14,25.46-25.46-14.14-14.14-25.46,25.46Z"/>
  </g>
  <g>
    <rect class="cls-1" x="28.01" y="240.85" width="26" height="26" transform="translate(191.51 45.35) rotate(45)"/>
    <path d="m41.01,279.31l-25.46-25.46,25.46-25.46,25.46,25.46-25.46,25.46Zm-11.31-25.46l11.31,11.31,11.31-11.31-11.31-11.31-11.31,11.31Z"/>
  </g>
  <g>
    <rect class="cls-4" x="94.9" y="169.04" width="40" height="19" transform="translate(159.9 -28.96) rotate(45)"/>
    <path d="m122.33,206.48l-35.36-35.36,20.51-20.51,35.36,35.36-20.51,20.51Zm-21.21-35.36l21.21,21.21,6.36-6.36-21.21-21.21-6.36,6.36Z"/>
  </g>
  <g>
    <rect class="cls-3" x="12.46" y="225.29" width="26" height="26" transform="translate(175.96 51.79) rotate(45)"/>
    <path d="m25.46,263.75L0,238.29l25.46-25.46,25.46,25.46-25.46,25.46Zm-11.31-25.46l11.31,11.31,11.31-11.31-11.31-11.31-11.31,11.31Z"/>
  </g>
</svg>