<?xml version="1.0" encoding="UTF-8"?>
<svg id="Layer_1" data-name="Layer 1" xmlns="http://www.w3.org/2000/svg" viewBox="0 0 335.14 344.51">
  <defs>
    <style>
      .cls-1 {
        fill: #005c9d;
      }

      .cls-2 {
        fill: #f5eb18;
      }

      .cls-3 {
        fill: #fff;
      }

      .cls-4 {
        fill: #df2922;
      }
    </style>
  </defs>
  <path d="m100.41,270.27l-35.36-35.36,101.04-101.04,35.36,35.36-101.04,101.04Zm-21.21-35.36l21.21,21.21,85.45-85.45-21.21-21.21-85.45,85.45Z"/>
  <g>
    <rect class="cls-1" x="26.59" y="242.15" width="84" height="52" transform="translate(209.7 30.04) rotate(45)"/>
    <path d="m79.9,323.3L13.44,256.83l43.84-43.84,66.47,66.47-43.84,43.84Zm-52.33-66.47l52.33,52.33,29.7-29.7-52.33-52.33-29.7,29.7Z"/>
  </g>
  <g>
    <rect class="cls-2" x="26.72" y="287.57" width="30" height="46" transform="translate(231.83 61.46) rotate(45)"/>
    <path d="m36.06,344.51l-28.28-28.28,39.6-39.6,28.28,28.28-39.6,39.6Zm-14.14-28.28l14.14,14.14,25.46-25.46-14.14-14.14-25.46,25.46Z"/>
  </g>
  <g>
    <rect class="cls-3" x="28.01" y="282.72" width="26" height="26" transform="translate(221.12 57.62) rotate(45)"/>
    <path d="m41.01,321.18l-25.46-25.46,25.46-25.46,25.46,25.46-25.46,25.46Zm-11.31-25.46l11.31,11.31,11.31-11.31-11.31-11.31-11.31,11.31Z"/>
  </g>
  <g>
    <rect class="cls-2" x="94.9" y="210.92" width="40" height="19" transform="translate(189.51 -16.69) rotate(45)"/>
    <path d="m122.33,248.35l-35.36-35.36,20.51-20.51,35.36,35.36-20.51,20.51Zm-21.21-35.36l21.21,21.21,6.36-6.36-21.21-21.21-6.36,6.36Z"/>
  </g>
  <g>
    <rect class="cls-4" x="12.46" y="267.17" width="26" height="26" transform="translate(205.56 64.06) rotate(45)"/>
    <path d="m25.46,305.62L0,280.17l25.46-25.46,25.46,25.46-25.46,25.46Zm-11.31-25.46l11.31,11.31,11.31-11.31-11.31-11.31-11.31,11.31Z"/>
  </g>
  <path d="m335.14,35.08l-137.17,137.17-35.08-35.08L300.06,0l35.08,35.08Zm-137.17,123.03l123.03-123.03-20.94-20.94-123.03,123.03,20.94,20.94Z"/>
</svg>