<?xml version="1.0" encoding="UTF-8"?>
<svg id="Layer_1" data-name="Layer 1" xmlns="http://www.w3.org/2000/svg" viewBox="0 0 393.14 213.51">
  <defs>
    <style>
      .cls-1 {
        fill: #005c9d;
      }

      .cls-2 {
        fill: #f5eb18;
      }

      .cls-3 {
        fill: #fff;
      }

      .cls-4 {
        fill: #df2922;
      }
    </style>
  </defs>
  <path d="m100.41,139.27l-35.36-35.36L166.09,2.87l35.36,35.36-101.04,101.04Zm-21.21-35.36l21.21,21.21,85.45-85.45-21.21-21.21-85.45,85.45Z"/>
  <g>
    <rect class="cls-1" x="26.59" y="111.15" width="84" height="52" transform="translate(117.07 -8.33) rotate(45)"/>
    <path d="m79.9,192.3L13.44,125.83l43.84-43.84,66.47,66.47-43.84,43.84ZM27.58,125.83l52.33,52.33,29.7-29.7-52.33-52.33-29.7,29.7Z"/>
  </g>
  <g>
    <rect class="cls-2" x="26.72" y="156.57" width="30" height="46" transform="translate(139.2 23.1) rotate(45)"/>
    <path d="m36.06,213.51l-28.28-28.28,39.6-39.6,28.28,28.28-39.6,39.6Zm-14.14-28.28l14.14,14.14,25.46-25.46-14.14-14.14-25.46,25.46Z"/>
  </g>
  <g>
    <rect class="cls-3" x="28.01" y="151.72" width="26" height="26" transform="translate(128.49 19.25) rotate(45)"/>
    <path d="m41.01,190.18l-25.46-25.46,25.46-25.46,25.46,25.46-25.46,25.46Zm-11.31-25.46l11.31,11.31,11.31-11.31-11.31-11.31-11.31,11.31Z"/>
  </g>
  <g>
    <rect class="cls-2" x="94.9" y="79.92" width="40" height="19" transform="translate(96.88 -55.06) rotate(45)"/>
    <path d="m122.33,117.35l-35.36-35.36,20.51-20.51,35.36,35.36-20.51,20.51Zm-21.21-35.36l21.21,21.21,6.36-6.36-21.21-21.21-6.36,6.36Z"/>
  </g>
  <g>
    <rect class="cls-4" x="12.46" y="136.17" width="26" height="26" transform="translate(112.93 25.69) rotate(45)"/>
    <path d="m25.46,174.62L0,149.17l25.46-25.46,25.46,25.46-25.46,25.46Zm-11.31-25.46l11.31,11.31,11.31-11.31-11.31-11.31-11.31,11.31Z"/>
  </g>
  <path d="m358.06,172.25L220.88,35.08,255.96,0l137.17,137.17-35.08,35.08ZM235.03,35.08l123.03,123.03,20.94-20.94L255.96,14.14l-20.94,20.94Z"/>
</svg>