<?xml version="1.0" encoding="UTF-8"?>
<svg id="Lager_1" data-name="Lager 1" xmlns="http://www.w3.org/2000/svg" viewBox="0 0 282.4 281.74">
  <defs>
    <style>
      .cls-1 {
        fill: #1d1d1b;
      }
    </style>
  </defs>
  <g>
    <path class="cls-1" d="M281.87,.9c2.58,10.32-108.27,146.7-151.38,180.18-2.93,2.28-10.9-1.44-17.08-8.21-4.65-5.09-9.94-11.1-9.94-15.13,0-15.13,176.1-166.01,178.39-156.84Z"/>
    <path class="cls-1" d="M128.16,182.26c-3.95,0-10.08-3.52-15.12-9.05-5.09-5.58-10.07-11.37-10.07-15.47,0-7.84,43.3-48.45,83.83-83.84C227.06,38.75,273.73,.9,280.93,.02c1.07-.13,1.35,.49,1.42,.76h0c2.76,11.03-109.2,147.81-151.55,180.7-.68,.53-1.58,.78-2.63,.78ZM281.23,.99c-.31,0-1.2,.16-3.49,1.42-12.74,7.03-54.53,40.7-97.21,78.32-46.51,40.99-76.56,71.21-76.56,77.01,0,4.06,6.14,10.78,9.81,14.8,6.39,7,13.93,10.07,16.41,8.15,22.71-17.63,62.8-62.55,92.74-98.7C257.95,39.7,282.54,5.65,281.38,1.02c0,0,0-.01,0-.01h0s-.04-.02-.15-.02Z"/>
  </g>
  <g>
    <path class="cls-1" d="M98.07,205.26c-3.47,1.46-11.4-5.27-13.71-8.24-1.81-2.33-5.32-8.28-4.23-11.02,2.85-7.17,17.99-25.46,18.74-24.61s7.86,11.23,10.87,14.23c3.54,3.54,14.84,10.37,13.95,11.03-6.61,4.87-16.54,14.8-25.61,18.61Z"/>
    <path class="cls-1" d="M96.95,205.97c-4.31,0-11.21-6.36-12.98-8.64-1.24-1.6-5.61-8.23-4.3-11.51,2.7-6.77,17.16-24.62,19.01-24.94,.22-.04,.43,.03,.57,.19,.22,.24,.83,1.1,1.99,2.71,2.52,3.51,6.75,9.39,8.86,11.5,1.64,1.64,5.04,4.04,8.04,6.17,4.87,3.44,6.09,4.4,6.1,5.11,0,.2-.09,.39-.25,.51-1.95,1.43-4.22,3.34-6.62,5.36-5.93,4.97-12.64,10.6-19.09,13.31-.4,.17-.84,.25-1.32,.25Zm1.73-44.01c-2.33,1.56-15.48,17.69-18.08,24.23-.96,2.42,2.23,8.05,4.16,10.53,2.3,2.96,10.02,9.38,13.12,8.08h0c6.31-2.65,12.96-8.23,18.83-13.15,2.31-1.93,4.49-3.77,6.4-5.19-.67-.75-3.35-2.65-5.56-4.2-3.03-2.15-6.47-4.58-8.17-6.28-2.17-2.17-6.42-8.09-8.96-11.62-.77-1.07-1.41-1.96-1.74-2.39Z"/>
  </g>
  <g>
    <path class="cls-1" d="M73.82,191.83s5.35,13.76,19.57,19.87c0,0,6.11,35.31-32.25,58.39s-59.92,3.36-59.92,3.36c0,0,9.48-.61,18.04-23.08,0,0-12.94,4.57-11.31,3.06,2.14-1.99,13.98-17.29,17.58-27.82,5.96-17.43,15.44-43.94,48.31-33.78Z"/>
    <path class="cls-1" d="M25.85,281.74c-16.05,0-24.84-7.78-24.98-7.91l-.87-.79,1.17-.08c.09,0,9.01-.93,17.21-21.75-10.45,3.65-10.79,3.1-11.01,2.73-.08-.13-.21-.47,.22-.87,1.84-1.71,13.79-16.92,17.45-27.62,5.7-16.65,15.23-44.52,48.93-34.1l.23,.07,.09,.22c.05,.14,5.45,13.64,19.3,19.59l.25,.11,.05,.27c.06,.36,5.73,35.92-32.49,58.91-14.16,8.52-26.1,11.21-35.54,11.21Zm-23.51-8.01c4.21,3.15,24.98,16.13,58.53-4.06,35.89-21.59,32.5-54.35,32.06-57.62-13.05-5.74-18.7-17.99-19.48-19.81-32.59-9.94-41.9,17.27-47.46,33.54-3.29,9.63-13.64,23.57-17.04,27.33,1.92-.44,6.22-1.81,10.13-3.2l1.02-.36-.38,1.01c-6.98,18.33-14.58,22.31-17.37,23.17Z"/>
  </g>
</svg>