<?xml version="1.0" encoding="UTF-8"?>
<svg xmlns="http://www.w3.org/2000/svg" viewBox="0 0 380.68 431.88">
  <defs>
    <style>
      .cls-1 {
        fill: #fff;
      }
    </style>
  </defs>
  <g id="Layer_1" data-name="Layer 1">
    <g>
      <path d="m202.16,169.15c.76.93,1.41,2,2.31,2.77,2.68,2.3,5.25,4.85,8.27,6.59,2.25,1.3,5.14,1.44,7.72,2.19,4.06,1.19,8.09,2.46,12.13,3.7l-.19.88h-4.8c-.35,4.56-.47,4.66-4.25,3.84,1.24,2.81-.73,3.69-2.7,3.75-2.48.07-5.03-.32-7.45-.91-5.17-1.25-17.81-.77-22.72,1.26,2.27,3.14,5.51,3.4,8.75,3.51,3.17.1,6.35.02,10.23.02-2.48,1.49-4.29,2.58-6.52,3.92,1.33,1.27,2.2,2.1,3.2,3.06-1.11,2.36-1.21,5.37-4.57,6.4-.47.14-.8,2.29-.46,3.24,1.5,4.15,3.28,8.21,4.59,11.42,2.75.84,4.65,1.42,6.56,2,.07.28.14.55.21.83-1.16.57-2.32,1.14-3.45,1.71,2.45,4.28,6.22.81,9.32,1.03.93,4.06.24,5.19-3.66,6.36.2.26.4.51.6.77-.91.95-1.68,2.16-2.77,2.81-2.14,1.27-5.23,1.6-3.25,5.49.5.98.27,3.22-2.22,2.74-1.19-.23-2.38-.43-3.57-.65v4.88c-4.09-2.37-8.35-4.66-12.43-7.24-9.38-5.92-19.04-11.52-27.05-19.31-3.12-3.04-5.62-6.72-9.31-10.23-.01,3.53-.47,7.14.04,10.59,1.95,13.28,7.53,25.4,12.43,37.76,3.32,8.38,6.07,16.99,9,25.53,1.36,3.97,2.54,8.01,4.02,12.7,1.35-1.27,2.31-2.11,3.2-3.02,10.36-10.54,20.79-21.01,31.01-31.68,2.85-2.98,5.97-2.88,8.55-.82,2.81,2.24,5.99,3.45,8.97,5.17,3.92,2.27,7.28,5.52,10.82,8.42,3.23,2.65,6.39,5.39,10.36,8.76.31-2.71.59-4.44.71-6.19.78-11.77,1.7-23.53,2.23-35.31.47-10.38-.52-20.62-4.63-30.36-.31-.74-.04-1.72-.04-2.59.39-.15.78-.3,1.17-.45,2,2.97,3.92,5.99,6.02,8.88.96,1.32,2.06,2.72,3.42,3.54,8.19,4.91,16.48,9.64,24.72,14.47,7.48,4.39,14.57,9.71,22.49,13.05,12.12,5.1,22.88,12.41,34.18,18.84,4.8,2.74,9.48,5.72,14.03,8.86,5.93,4.09,7.64,10.7,9.92,17.05,1.95,5.44,4.91,10.52,6.88,15.96,2.48,6.82,4.46,13.83,6.48,20.81.19.66-.78,1.78-1.4,2.53-.64.78-1.52,1.37-2.29,2.04.73.75,1.45,1.5,2.14,2.2.36,2.64.96,5.58,1.06,8.54.03.98-1.06,2.75-1.87,2.9-4.58.86-4.79,1.16-2.08,5.69.62-.65,1.18-1.24,1.74-1.83.23.06.47.12.7.18-.43,2.29-.86,4.58-1.37,7.31-2.13-.62-3.93-1.14-5.68-1.64.27,2.02.53,3.95.66,4.96-1.51,1.31-2.42,1.98-3.18,2.8-1.1,1.18-2.12,2.44-3.13,3.7-.89,1.12-1.72,2.3-3.03,4.06-.84.41-2.77,1.02-4.26,2.19-2.42,1.89-4.51,4.2-6.82,6.23-1.01.89-2.23,1.54-3.81,2.61-.94,1.44-2.16,3.51-3.66,5.36-.19.24-2.56-.55-2.65-1.08-.96-5.48-1.69-11-2.41-16.51-.22-1.67-.2-3.37-.79-5.16-3.24,11.49-12.45,16.95-21.48,22.61-4.45,2.79-8.82,5.7-13.23,8.54-.48.31-.97.61-1.49.83-2.47,1.06-4.95,2.09-7.88,3.33.28-1.17.62-2.63,1.01-4.29-2.56-1.58-3.82.06-4.94,2.08-2.23,4.03-4.43,8.07-6.69,12.08-.81,1.44-1.74,2.82-2.61,4.23l-.93-.4c5.28-14.61,10.57-29.21,15.85-43.82-.29-.15-.57-.3-.86-.45-2.17,3.01-4.34,6.01-6.62,9.18-2.31-4.2-4.95-7.3-8.92-8.85-1.85,5.24,1.8,8.01,3.38,11.55.38.86,0,2.07-.02,3.11-.86-.32-1.71-.64-2.57-.97-.3-.12-.67-.43-.87-.35-4.69,1.91-4.58-2.71-6.41-4.68-.77-.83-1.6-2.32-2.37-2.3-2.03.06-3.05,1.38-2.3,3.56.07.19-.03.44-.1,1.03-5.16-.45-4.18,3.27-4.54,6.65-.78-1.25-1.56-2.51-2.34-3.76-.27,0-.53,0-.8.01.12,1.13.25,2.27.44,4.05-2.08,1.12-5.04,2.33-7.55,4.16-2.79,2.04-3.43,6.59-1.7,9.8h-3.81c-1.02,6.06-2.04,12.17-3.07,18.27-.34-.05-.68-.1-1.01-.15-2.48-5.51-4.96-11.02-7.44-16.52-.2.09-.4.18-.61.26,0,4.8.19,9.62-.1,14.4-.11,1.8-1.03,4.76-2.1,5.02-1.7.4-3.83-1.02-6.4-1.89,1.31-1.21,1.96-1.81,2.4-2.22-1.48-1.91-2.89-3.72-4.53-5.83-.37.16-1.29.34-1.91.87-3.59,3.08-8.01.78-11.92,1.84-.42.12-1.59-1.19-1.85-2.02-.9-2.83-1.67-5.71-2.27-8.61-.79-3.85-1.3-7.78-5.75-9.24,2.08-4.03,1.05-6.84-4.65-12.03-.64,3.3-1.25,6.08-1.71,8.88-.44,2.73-.64,5.5-1.17,8.21-.08.43-1.31.64-2.01.95-.32-.71-.63-1.43-.7-1.57-1.96-.18-3.69-.35-5.81-.54.09.95.2,2.11.31,3.33-1.27.64-2.55,1.28-4.42,2.22-.02-5.32-5.44-3.57-8.34-6.18.31,1.31.62,2.61.92,3.91-2.98.51-3.09.41-3.88-2.49-.19-.71-.65-1.41-1.16-1.95-2.54-2.71-5.12-5.39-7.73-8.03-.52-.53-1.23-.87-2.4-.7,6.12,11.09,12.23,22.19,18.35,33.28l-.61.47c-2.43-2.32-4.94-4.57-7.26-6.99-1.92-2-3.23-5.06-5.52-6.09-2.37-1.07-2.94-2.88-3.81-4.56-1.4-2.71-3.19-3.9-6.28-3.6-.8.08-2.35-1.12-2.49-1.92-.32-1.85-.45-3.74-2.85-3.21-1.29.29-2.35,1.62-3.52,2.48-.06.45-.12.89-.18,1.34-2.87-2.28-5.75-4.57-8.66-6.88-2.35,2.15-2.46,4.03.33,6.09-2.44.97-4.43,1.76-6.73,2.68v-4.12c-1.81,1.15-3.27,2.12-4.77,3.01-1.03.62-2.12,1.13-3.18,1.7-.33-1.13-.85-2.25-.96-3.4-.36-3.58-1.14-4.27-4.94-3.82v-3.39c-1.55.41-2.88.76-4.56,1.2.31-.93.59-1.79.9-2.74-1.45-1.89-5.88-1.44-4.87-5.76-1.16,1.62-2.33,3.24-3.49,4.85-.24-.12-.47-.24-.71-.36,0-.72.05-1.44,0-2.16-.19-2.33-2.46-3.77-4.39-2.58-2.89,1.77-5.78,2.35-9.07,1.34-.51-.16-1.62.63-2,1.26-.95,1.56-1.41,3.44-2.48,4.89-1.53,2.07-3.4,3.88-5.22,5.7-.07.07-1.4-.77-1.73-1.41-.46-.89-.54-1.99-.93-3.62-1.15,2.42-1.61,4.31-2.76,5.6-1.93,2.17-3.62,1.59-5.05-.91-.6-1.04-1.97-1.64-3.25-2.65.05-.86.13-2.1.21-3.51-1.03-.53-2.06-1.25-3.2-1.63-2.57-.86-3.52-2.06-2.92-5.09.22-1.11-2.54-2.98-4.16-4.23-1.2-.92-3.17-1.06-4.04-2.15-1.73-2.15-2.91-3.33-4.8-.22-.41.67-1.99,1.23-2.73.98-1.4-.48-2.57-1.59-3.51-2.81-1.87-.42-3.73-.83-5.6-1.25.04-.22.08-.44.13-.66,1.78-.56,3.55-1.12,6.05-1.91-2.33-1.23-3.66-1.93-5.24-2.77-.6,1.08-1.33,2.38-2.06,3.68-.02-.37-.04-.74-.06-1.11-1.3-.45-2.64-.82-3.89-1.38-1.05-.47-1.99-1.17-2.73-2.49h6.87c-.49-2.43-.92-4.57-1.48-7.36-.65.82-1.31,1.37-1.59,2.07-1.28,3.21-2.84,3.78-4.76,1.13-1.93-2.66-5.57-4.29-5.42-8.41.02-.44-1.68-.94-3.1-1.68-.03-.28-.14-1.21-.27-2.46-1.05.43-1.83.76-2.61,1.08-.16-4.35-4.5-8.74.89-13.04-.37-.18-.74-.36-1.12-.54-2.35,1.58-4.7,3.16-7.5,5.04.44-3.71.87-7.31,1.32-11.11-.42.2-.76.26-.92.46-.63.81-1.2,1.66-1.8,2.5-.56-.63-1.61-1.29-1.59-1.9.04-1.09.52-2.33,1.21-3.18.57-.7,1.72-.92,2.78-1.42-2.82-3.13-5.48-6.08-8.49-9.42,3.1-6.07,6.44-12.38,9.57-18.8,3.09-6.35,5.52-13.06,9.08-19.12,2.49-4.24,6.33-7.71,9.74-11.37.48-.51,2.27-.55,2.85-.07,2.24,1.86,3.59.33,5.4-.76,5.86-3.55,11.75-7.1,17.86-10.22,5.04-2.57,10.34-4.66,15.62-6.73,4.55-1.79,9.33-3.01,13.8-4.95,4.28-1.86,8.13-4.77,12.47-6.42,10.35-3.95,20.01-8.98,28.85-15.69,3.26-2.48,6.89-4.5,10.42-6.6,6.73-4.01,12.41-8.9,15.26-16.52.58-1.55,1.71-3.01,2.91-4.19,3.33-3.3,4.24-6.5,2.33-10.6-3.4-7.3-6.04-14.76-6.84-22.86-.27-2.74-.53-6.11-4.94-6.08-1,0-2.5-1.49-2.93-2.61-2.05-5.4-4.46-10.54-3.54-16.86.8-5.45-1.18-11.32-.27-16.73,1.24-7.42-2.87-12.04-6.25-17.5-3.79-6.15-8.21-12.13-9.29-19.59-.19-1.32.16-2.71.14-4.07-.02-1.37-.18-2.73-.33-4.1-.03-.32-.39-.62-.38-.93.15-3.69.18-7.41.6-11.07.14-1.21,1.16-2.42,2.02-3.44,2.79-3.3,2.49-6.31-1-8.65-2.09-1.4-2.17-3.63,0-4.86,3.29-1.87,5.48-4.27,5.89-8.27.16-1.6,1.13-3.32,2.19-4.59,2.37-2.83,5.38-4.97,6.52-8.93.42-1.48,3.47-2.26,5.39-3.23,1.43-.72,3.12-.99,4.42-1.87,4.75-3.21,9.75-5.66,15.58-6.14.59-.05,1.12-.97,1.84-1.64-.95-.82-1.7-1.47-2.45-2.12.78-4.82,3.83-6.94,8.34-7.76,4.29-.78,8.55-1.8,12.75-2.97,1.43-.4,2.52-1.98,3.94-2.38,6.06-1.68,12.19-3.13,18.55-4.72-.04-3.19,2.77-3.2,4.98-2.89,2.06.29,4.65,1.09,3.49,4.38,2.59.52,5.02.75,7.23,1.55,1.52.55,4.45.34,3.37,3.63-.09.27.81,1.01,1.37,1.34,1.88,1.1,3.72,2.39,5.75,3.06,1.18.39,2.88.08,4.03-.52,2.25-1.18,8.91,1.71,9.21,4.3.05.44-.43.94-.81,1.71-.98-.76-1.75-1.36-2.52-1.95,1.57,4.94,5.52,7.93,8.88,11.14.93-1.11,1.57-2.62,2.59-2.94,1.43-.45,4.85,4.4,5.18,7.16,3.26-.44,3.95,2.08,4.96,4.41,1.22,2.8,2.79,5.45,3.94,8.28.5,1.24.44,2.75.43,4.14-.02,3.99-.22,7.98-.15,11.97.01.84.8,2.35,1.33,2.4,4.4.41,6.69,3.69,9.48,6.39,1.25,1.21,2.87,2.02,4.33,3.01-.12.27-.25.54-.37.81-1.55-.48-3.11-.96-5.64-1.75,1.56,2.06,2.4,4.38,3.77,4.74,2.69.71,3.3,2.24,3.62,4.68.71-.88,1.43-1.76,2.14-2.64.31.02.63.05.94.07.2,3.01.41,6.01.64,9.4,2.16-3.24,3.52-1.9,4.96.66,1.53,2.72,3.42,5.25,4.52,8.21,1.03.32,2.06.63,3.09.95,0,.29-.02.58-.03.87-1.29.12-2.57.24-4.08.39.52,1.31.28,3.28,2.92,2.28.48-.18,1.62.35,1.85.84.26.55,0,1.54-.39,2.09-.17.24-1.22-.22-1.87-.22-.96-.01-1.92.09-3.97.21,4.47,4.39,1.46,6.93-1.04,9.15-2.12,1.88-2.48,3.96-2.75,6.53-.33,3.17.12,7.17-4.96,7.57-.79.06-1.45,1.79-2.19,2.77-4.49-2.24-6.12-1.71-9.35,2.65-1.12,1.51-2.59,2.85-4.14,3.92-2.54,1.77-3.41,6.33-1.82,8.97,1.39,2.31,2.69,4.82,3.25,7.41.33,1.49-.58,3.51-1.51,4.92-.51.77-2.22.76-3.38,1.1-.03-1.14-.37-2.39-.03-3.41,1.12-3.33,1.15-6.25-.91-9.45-1.1-1.71-.87-4.34-1.03-6.58-.6-8.19-.93-16.4-1.79-24.55-.25-2.37-2.48-4.49-2.85-6.88-.91-5.84-1.2-11.68.34-17.61.8-3.09-.02-6.58.11-9.88.07-1.77.6-3.53,1.02-5.81-.17-.34-.78-1.51-1.33-2.71-.72-1.59-1.34-3.23-2.11-4.79-.4-.81-1.35-1.44-1.5-2.25-.79-4.08-4.02-3.43-6.8-3.71-2.43-.25-4.87-.8-7.29-.71-5.41.19-10.82.67-16.22,1.1-1.51.12-2.99.49-4.5.65-3.45.39-7,1.37-10.33.89-3.12-.45-5.94-2.67-9.02-3.72-2.76-.94-5.71-1.31-8.56-1.99-1.16-.27-2.28-.69-3.42-1.04-1.69-.52-4.4-1.95-4.91-1.39-2.42,2.65-4.78.7-7.17.65-1.52-.03-3.05.38-4.57.63-1.63.27-3.25.59-5.18.94-.11.67-.27,1.63-.43,2.55-8.09,3.11-12.78,9.55-16.44,16.55.94.74,1.99,1.55,3.18,2.48.76-2.18,1.59-4.57,2.51-7.2,2.34.03,4.14,1.9,5.37,6.82-1.11-.55-1.9-1.24-2.72-1.26-.78-.03-1.59.63-3.23,1.36,2.2,1.12,3.71,1.89,5.25,2.67-.8,2.93-1.83,3.11-5.65,1,1.74,2.87,3.47,5.74,5.15,8.51-1.6,2.64-3.49,5.46-5.05,8.44-1.15,2.2-1.88,4.62-2.9,7.2.91.07,2.81.82,3.64.19,3.74-2.87,7.3-.89,10.97-.2,3.6.67,7.26.99,10.84,1.73,2.99.62,5.86,1.77,8.85,2.39,1.64.34,3.42.06,5.82.06.66,1.11,1.69,2.82,2.26,3.77-.96,2.74-1.79,4.73-2.35,6.79-1.58,5.85-4.25,11.36-4.68,17.58-.2,2.91-1.78,5.74-2.83,8.58-1.65,4.45-3.89,8.9-1.36,13.63.65,1.22,2.56,2.48,3.9,2.48,3.65.02,6.01,1.74,8.41,4.19.8.82,2.92.33,4.44.44,0,0-.14-.15-.14-.15Zm31.14,236.23c.29-.16.58-.32.87-.48.5-3.96.99-7.93,1.51-11.88,2.37-17.92,4.77-35.84,7.1-53.77.12-.95.1-2.48-.45-2.86-4.36-2.93-2.72-7.04-2.44-10.92.06-.87.35-2.05-.08-2.56-1.6-1.9-3.75-3.38-5.17-5.39-2.61-3.7-5.09-7.53-7.18-11.54-2.64-5.06-4.59-10.49-7.38-15.45-.72-1.29-3.46-1.6-5.34-1.96-.43-.08-1.64,1.48-1.7,2.34-.73,11.28-2.93,22.12-8.84,31.98-1.8,3-3.38,6.14-5.73,10.43,10.46,23.51,21.01,48.57,34.82,72.06Zm-86.81-270.15c2.64,2.97,1.3,8.56,5.91,9.85.51,1.59.56,3.21,1.4,4.09,3.09,3.28,6.43,6.32,9.89,9.66.05-.05.71-.59,1.72-1.42-.84,5.8,4.93,6.21,6.35,9.89.67-3.6.7-3.56,4.03-5.99.6-.44,1.09-1.43,1.13-2.19.13-2.87.05-5.76.05-7.85,2.45-1.34,5.18-1.9,5.94-3.43,2.09-4.21,3.37-8.83,4.93-13.21-1.2-.1-2.43-.3-3.65-.27-3.62.09-7.24.19-10.84.47-1.36.11-2.66.95-4.02,1.05-2.39.17-4.8.04-7.2-.03-.63-.02-1.66-.05-1.83-.4-1.92-4-3.48-1.34-5.03.24-.81.83-1.44,1.84-1.88,2.41-2.52-1.05-4.72-1.96-6.91-2.88Zm74.4,53.99c-.5-1.39-.55-2.34-1.04-2.77-2.54-2.18-4.22-5.28-8.65-5.02-4.3.25-8.54-3.09-13.15-.76-.34.17-1.32-.68-1.87-1.21-1.62-1.55-3.13-.71-3.37.79-.14.87,1.62,2.9,2.6,2.95,2.92.15,5.87-.5,8.82-.69,1.18-.08,2.57-.09,3.56.43,3.11,1.64,6.03,3.63,9.11,5.32.99.54,2.26.56,3.99.95Zm-54.58-18.75c-.66,3.76,1.94,4.58,5.78,4.58-1.25,1.08-1.94,1.68-3.03,2.62,1.85.58,3.95,1.79,4.49,1.3,3.04-2.8,8.2-4.03,7.84-9.71h-4.22c-.68,1.67-1.85,3.66-2.82,3.56-2.58-.26-5.07-1.41-8.04-2.35Zm-21.63-39.18c.15.34.3.68.45,1.02,1.22-1.22,2.62-2.32,3.58-3.71.63-.91.91-2.28.81-3.39-.12-1.4-.79-2.76-1.23-4.14-1.16.86-2.45,1.6-3.41,2.64-.38.42.04,1.53.01,2.32-.05,1.75-.15,3.51-.23,5.26ZM244.12,27.24c-.3.24-.6.49-.89.73,2.17,2.79,4.34,5.57,6.66,8.55,1.96-4.46-.28-7.8-5.77-9.28Zm-71.15,102.49c.19.41.39.82.58,1.23,2.64-1.31,5.28-2.62,8.1-4.02-1.02-1.56-1.62-2.46-2.23-3.38-2.57,2.45-4.51,4.31-6.46,6.17ZM238.9,15.47c-.31-.17-.62-.34-.93-.51-.57.77-1.69,1.59-1.62,2.29.42,4.07,3.09,6.42,6.77,7.92-2.43-2.79-5.7-5.16-4.22-9.7Zm-88.5,99.06l-1.62-.69c-.64,1.44-1.3,2.88-1.87,4.35-.02.05.83.45,1.28.68.74-1.45,1.47-2.89,2.21-4.34Zm120.91-37.62c.37-.02.74-.05,1.11-.07-.15-1.68-.3-3.36-.45-5.04-3.4,1.81-1.33,3.44-.66,5.1Z"/>
      <path d="m207.15,120.75c.66-1.77.96-2.88,1.48-3.89.43-.84.94-1.91,1.7-2.25,7.46-3.33,15.29-2.89,23.07-1.7,2.25.34,4.49,1.7,4.31,3.9-3.56,1.63-6.56,3-9.56,4.37l.28,1.06c4.13,1.94,8.26,3.88,12.4,5.83.22-.24.44-.48.65-.71-1.93-1.79-3.87-3.59-5.71-5.29,4.17-.75,10.2,4.62,10.74,9.3-1.82.17-3.64.57-5.42.44-1.85-.13-4.2.8-5.29-1.96-.18-.45-2.47-.74-2.78-.34-2.54,3.27-5.62,3.49-9.16,2.13-.25-.09-.62.15-.98.26-.14,4.1,6.6,1.26,5.8,6.81-3.7-.99-7.46-1.43-10.62-3.04-2.06-1.05-3.48-3.66-4.78-5.81-1.04-1.72-4.47-3.24-1.21-5.92-.84-.78-1.58-1.7-2.53-2.29-.91-.56-2.03-.77-2.38-.9Z"/>
      <path d="m276.97,149.81c-.62-3.37-1.56-6.73-1.63-10.1-.02-.9,2.68-1.85,4.13-2.78.38,1.16,1.17,2.37,1.06,3.48-.33,3.17-1.03,6.3-1.59,9.44-.66-.01-1.32-.03-1.98-.04Z"/>
      <path d="m327.31,395.23c-.55,1.53-.96,2.39-1.16,3.29-.41,1.89-.58,2.05-4.91,1.52-.75-.09-1.37-1.21-2.05-1.86,1.08-.71,2.07-1.64,3.25-2.06,1.43-.51,3.02-.58,4.87-.9Z"/>
      <path d="m202.16,169.15s.14.15.14.15c1.26-2.62,4.51-4.19,6.87-3.14.58.26,1.37,1.36,1.22,1.69-.37.8-1.22,1.93-1.89,1.94-2.11.03-4.22-.39-6.33-.64Z"/>
      <path d="m219.29,426.63c.89,1.24,1.78,2.47,2.66,3.71-.16.28-.32.57-.48.85-.98-.13-2.49.07-2.82-.46-.59-.94-.45-2.33-.62-3.53.42-.19.84-.38,1.25-.57Z"/>
      <path d="m53.67,391.71c1.12,1.39,2.01,2.5,3.35,4.16-1.2.35-2.56,1.09-2.86.78-1.2-1.23-2.55-2.72-.49-4.94Z"/>
      <path class="cls-1" d="m233.29,405.37c-13.81-23.48-24.36-48.54-34.82-72.06,2.35-4.3,3.93-7.43,5.73-10.43,5.91-9.85,8.11-20.69,8.84-31.98.06-.86,1.27-2.42,1.7-2.34,1.89.36,4.62.67,5.34,1.96,2.79,4.96,4.74,10.39,7.38,15.45,2.09,4.01,4.57,7.84,7.18,11.54,1.42,2.01,3.56,3.49,5.17,5.39.43.51.14,1.69.08,2.56-.28,3.87-1.92,7.99,2.44,10.92.55.37.57,1.91.45,2.86-2.33,17.93-4.73,35.84-7.1,53.77-.52,3.96-1.01,7.92-1.51,11.88-.29.16-.58.32-.87.48Z"/>
      <path class="cls-1" d="m146.48,135.22c2.2.91,4.39,1.83,6.91,2.88.43-.57,1.06-1.58,1.88-2.41,1.54-1.58,3.11-4.24,5.03-.24.17.35,1.19.38,1.83.4,2.4.06,4.81.19,7.2.03,1.36-.09,2.66-.94,4.02-1.05,3.6-.28,7.22-.38,10.84-.47,1.22-.03,2.45.18,3.65.27-1.57,4.38-2.84,9-4.93,13.21-.76,1.53-3.48,2.08-5.94,3.43,0,2.09.08,4.97-.05,7.85-.03.76-.52,1.75-1.13,2.19-3.33,2.43-3.37,2.39-4.03,5.99-1.42-3.68-7.19-4.09-6.35-9.89-1.01.83-1.67,1.37-1.72,1.42-3.46-3.34-6.8-6.38-9.89-9.66-.83-.88-.88-2.5-1.4-4.09-4.61-1.29-3.27-6.88-5.91-9.85Z"/>
      <path class="cls-1" d="m220.88,189.21c-1.73-.39-3-.41-3.99-.95-3.09-1.69-6.01-3.68-9.11-5.32-.99-.52-2.37-.51-3.56-.43-2.95.19-5.9.83-8.82.69-.98-.05-2.74-2.07-2.6-2.95.24-1.5,1.76-2.35,3.37-.79.54.52,1.53,1.38,1.87,1.21,4.61-2.33,8.85,1,13.15.76,4.43-.25,6.11,2.84,8.65,5.02.5.43.54,1.38,1.04,2.77Z"/>
      <path class="cls-1" d="m166.3,170.46c2.97.94,5.46,2.09,8.04,2.35.97.1,2.14-1.89,2.82-3.56h4.22c.36,5.67-4.8,6.91-7.84,9.71-.53.49-2.64-.73-4.49-1.3,1.09-.94,1.79-1.54,3.03-2.62-3.85,0-6.44-.81-5.78-4.58Z"/>
      <path class="cls-1" d="m144.67,131.28c.08-1.75.18-3.5.23-5.26.02-.79-.39-1.9-.01-2.32.95-1.05,2.25-1.78,3.41-2.64.43,1.38,1.1,2.73,1.23,4.14.1,1.12-.19,2.49-.81,3.39-.96,1.4-2.37,2.49-3.58,3.71-.15-.34-.3-.68-.45-1.02Z"/>
      <path class="cls-1" d="m244.12,27.24c5.49,1.48,7.73,4.82,5.77,9.28-2.32-2.98-4.49-5.77-6.66-8.55.3-.24.6-.49.89-.73Z"/>
      <path class="cls-1" d="m172.96,129.74c1.95-1.86,3.89-3.72,6.46-6.17.61.92,1.2,1.82,2.23,3.38-2.82,1.4-5.46,2.71-8.1,4.02-.19-.41-.39-.82-.58-1.23Z"/>
      <path class="cls-1" d="m238.9,15.47c-1.48,4.54,1.79,6.9,4.22,9.7-3.68-1.5-6.35-3.85-6.77-7.92-.07-.7,1.05-1.52,1.62-2.29.31.17.62.34.93.51Z"/>
      <path class="cls-1" d="m150.4,114.53c-.74,1.45-1.47,2.89-2.21,4.34-.45-.24-1.3-.63-1.28-.68.57-1.47,1.23-2.9,1.87-4.35l1.62.69Z"/>
      <path class="cls-1" d="m271.31,76.91c-.68-1.67-2.75-3.29.66-5.1.15,1.68.3,3.36.45,5.04-.37.02-.74.05-1.11.07Z"/>
    </g>
  </g>
  <g id="Layer_2" data-name="Layer 2">
    <g>
      <path class="cls-1" d="m42.87,339.39l-2.54,4.6c-.48.87-.79,1.55-.93,2.02-.14.48-.15.93-.03,1.35.1.37.27.69.51.97.24.28.6.57,1.08.87l-.16.29-8.19-4.52.16-.29c.51.25.95.4,1.32.45.37.05.73.02,1.1-.09.42-.12.8-.37,1.12-.73s.73-.99,1.22-1.87l5.22-9.45c.41-.74.69-1.32.84-1.75.16-.43.22-.82.21-1.15-.03-.46-.18-.88-.42-1.23-.25-.36-.64-.7-1.17-1.04l-.09-.05.16-.29,7.73,4.27c1.35.75,2.31,1.36,2.87,1.86.57.49,1,1.09,1.3,1.79.7,1.59.63,3.16-.22,4.7-.86,1.56-2.11,2.37-3.74,2.42-.85.02-1.75-.18-2.71-.61-.31-.13-1.01-.51-2.12-1.12l-2.51-1.39Zm.23-.41l1.26.69c.85.47,1.53.76,2.06.89.53.13,1.06.12,1.6,0,1.26-.3,2.24-1.08,2.93-2.35.39-.7.62-1.41.7-2.13.08-.72,0-1.39-.26-2.01-.28-.72-.76-1.32-1.43-1.8-.19-.12-.63-.38-1.33-.77l-1.08-.59-4.45,8.07Z"/>
      <path class="cls-1" d="m65.59,339.77l-.15.3c-.51-.22-.95-.35-1.32-.39-.37-.04-.74,0-1.11.14-.51.18-.97.56-1.35,1.14-.28.44-.57.96-.87,1.56l-4.79,9.67c-.36.73-.61,1.32-.75,1.77-.14.45-.19.85-.16,1.18.05.46.22.87.49,1.22.27.35.7.69,1.28,1.02l-.15.3-8.39-4.15.15-.3c.52.23.97.36,1.33.39.37.04.73-.01,1.09-.14.42-.14.78-.4,1.09-.78.31-.38.69-1.02,1.13-1.92l4.79-9.67c.45-.9.73-1.59.84-2.07.12-.48.1-.92-.04-1.34-.11-.37-.29-.69-.55-.96s-.63-.54-1.12-.82l.15-.3,8.39,4.15Z"/>
      <path class="cls-1" d="m80.96,346.61l-1.7,4.53-.31-.12c.21-.8.29-1.51.24-2.12-.05-.61-.25-1.21-.6-1.81-.28-.5-.68-.93-1.2-1.31-.52-.38-1.25-.78-2.2-1.19l-3.07-1.34-3.51,8.06.81.35c.81.36,1.45.57,1.91.64.46.07.88.03,1.26-.14.36-.15.68-.38.96-.68.27-.3.6-.78.98-1.43l.3.15-3.19,7.17-.31-.13c.22-.72.34-1.33.37-1.82.03-.49-.03-.94-.18-1.36-.14-.4-.4-.77-.77-1.09s-.89-.63-1.55-.92l-.77-.33-1.34,3.07c-.53,1.23-.89,2.13-1.07,2.72-.18.59-.26,1.11-.25,1.56.02.78.28,1.45.77,2.02s1.25,1.08,2.27,1.52c1.07.47,2.03.72,2.88.77s1.62-.12,2.33-.5c.49-.25.94-.57,1.36-.97s.88-.97,1.41-1.7l.3.15-2.5,5.27-16.02-6.98.13-.31c.52.2.97.3,1.34.33.37.02.73-.04,1.1-.19.4-.17.75-.45,1.05-.85.3-.4.64-1.05,1.04-1.97l4.31-9.9c.4-.91.64-1.61.73-2.1.09-.49.06-.94-.09-1.34-.13-.36-.33-.67-.59-.93s-.65-.51-1.16-.76l.13-.31,14.44,6.29Z"/>
      <path class="cls-1" d="m90.51,350.68c-.58-.21-1.21-.41-1.88-.61-1.44-.43-2.56-.63-3.36-.59-.8.04-1.54.33-2.24.86-.64.5-1.27,1.26-1.89,2.28l-.31-.14,2.06-5,18.67,6.66-1.57,5.18-.33-.08c.21-1.37.16-2.47-.13-3.32-.29-.85-.9-1.59-1.81-2.24-.77-.55-2.17-1.19-4.21-1.92l-5.02,14.07c-.33.94-.53,1.65-.59,2.15-.06.49,0,.94.19,1.33.16.36.39.66.67.89.28.24.68.46,1.2.68l-.11.32-8.82-3.14.11-.32c.54.16,1,.24,1.37.24s.73-.09,1.08-.27c.39-.19.72-.5.99-.91.27-.41.57-1.09.91-2.04l5.02-14.07Z"/>
      <path class="cls-1" d="m126.38,361.09c-.55-.11-1-.15-1.35-.12-.36.03-.71.15-1.05.35-.26.14-.47.32-.64.54s-.32.5-.45.86c-.19.47-.38,1.05-.55,1.72l-2.71,10.45c-.25.97-.38,1.71-.39,2.21s.1.93.32,1.29c.39.64,1.05,1.1,1.98,1.39l-.08.33-9.06-2.35.08-.33c.56.11,1.02.15,1.39.11.37-.04.72-.16,1.05-.35.37-.23.67-.56.9-1,.23-.44.47-1.14.72-2.11l3.29-12.68-11.75,15.23-.3-.08-2.88-18.76-3.22,12.42c-.25.97-.38,1.71-.4,2.2-.01.49.09.93.3,1.3.19.34.44.62.75.83.3.21.72.4,1.25.57l-.08.33-6.54-1.7.08-.33c.55.11,1,.15,1.37.11.37-.04.72-.16,1.05-.36.37-.23.67-.56.9-1,.23-.44.47-1.14.72-2.11l2.71-10.45c.11-.44.21-.85.28-1.25.13-.71.16-1.25.07-1.62-.12-.5-.36-.92-.72-1.24-.36-.32-.87-.59-1.54-.8l.08-.33,6.15,1.6,2.21,16.75,10.3-13.51,5.83,1.51-.08.33Z"/>
      <path class="cls-1" d="m136.61,362.33l-.06.33c-.55-.07-1.01-.07-1.38,0s-.71.21-1.02.44c-.44.32-.77.81-.98,1.48-.15.5-.28,1.08-.4,1.74l-1.92,10.62c-.14.8-.22,1.43-.23,1.91,0,.48.05.87.17,1.18.18.43.45.77.81,1.03.36.26.86.47,1.51.62l-.06.33-9.21-1.66.06-.33c.56.07,1.03.07,1.39,0,.36-.07.7-.21,1.01-.44.36-.25.64-.6.83-1.06.19-.45.38-1.17.55-2.16l1.92-10.62c.18-.99.26-1.73.24-2.22-.02-.49-.16-.92-.41-1.28-.21-.33-.48-.58-.8-.77s-.76-.34-1.3-.47l.06-.33,9.21,1.66Z"/>
      <path class="cls-1" d="m140.87,365.71l-1.37,12.67c-.11,1-.13,1.74-.07,2.23.06.49.22.9.49,1.25.24.31.53.55.86.71.33.16.77.29,1.32.38l-.04.33-6.71-.73.04-.33c.56.03,1.01,0,1.37-.09s.69-.26.99-.51c.33-.28.58-.65.75-1.12s.3-1.2.41-2.19l1.16-10.75c.11-.98.13-1.72.07-2.21-.06-.49-.22-.91-.49-1.25-.23-.31-.51-.55-.84-.71-.33-.16-.78-.29-1.34-.38l.04-.33,5.61.61,10.19,16.37,1.14-10.51c.11-1,.13-1.74.07-2.23-.06-.49-.22-.9-.49-1.25-.24-.31-.53-.55-.86-.71-.33-.16-.77-.29-1.32-.38l.04-.33,6.71.73-.04.33c-.97-.11-1.76.09-2.36.6-.33.28-.58.65-.75,1.12-.16.47-.3,1.19-.4,2.17l-1.66,15.32-.66-.07-11.85-18.73Z"/>
      <path class="cls-1" d="m175.12,365.18l.17,4.84h-.34c-.11-.81-.31-1.5-.6-2.04-.28-.54-.7-1.02-1.25-1.44-.45-.35-.99-.6-1.61-.75-.62-.15-1.45-.24-2.49-.25l-3.35-.06-.15,8.79h.88c.89.03,1.56-.02,2.01-.13.45-.11.82-.31,1.11-.61.28-.28.49-.61.62-.99.14-.38.26-.95.36-1.7l.34.02-.19,7.85h-.34c-.08-.76-.19-1.37-.36-1.83-.16-.46-.39-.86-.69-1.18-.29-.32-.66-.55-1.13-.71s-1.06-.24-1.78-.25h-.83s-.06,3.34-.06,3.34c-.02,1.34,0,2.31.05,2.92.06.61.18,1.12.37,1.54.32.71.82,1.23,1.49,1.57.67.34,1.57.52,2.68.54,1.17.02,2.16-.11,2.95-.4.8-.29,1.45-.74,1.96-1.35.36-.41.65-.89.88-1.42.23-.53.44-1.24.64-2.11l.34.02-.29,5.83-17.47-.29v-.34c.56-.02,1.02-.09,1.36-.21.35-.12.66-.32.94-.6.31-.31.52-.7.64-1.18.12-.48.19-1.22.21-2.22l.18-10.79c.02-1-.03-1.74-.13-2.22-.1-.49-.31-.89-.6-1.2-.26-.29-.56-.5-.91-.63-.34-.13-.8-.22-1.37-.26v-.34s15.75.26,15.75.26Z"/>
      <path class="cls-1" d="m184.4,374.95l.36,5.17c.07.99.18,1.73.32,2.2.15.47.38.86.71,1.15.28.25.6.44.96.54s.82.16,1.38.15l.02.34-9.34.65-.02-.34c.56-.07,1.01-.18,1.35-.34.34-.16.63-.38.87-.67.29-.33.47-.74.55-1.23.07-.49.07-1.23,0-2.23l-.75-10.77c-.07-1-.17-1.74-.32-2.21-.14-.47-.38-.85-.71-1.14-.28-.26-.6-.45-.96-.55-.36-.1-.82-.15-1.38-.14l-.02-.34,7.04-.49c1.18-.08,1.96-.13,2.33-.15,1.51-.04,2.71.08,3.59.37.99.32,1.78.85,2.36,1.59.59.74.91,1.62.99,2.64.11,1.52-.38,2.78-1.47,3.77-.33.3-.7.55-1.11.75-.41.21-.97.41-1.67.62.6.2,1.05.43,1.35.67.24.19.46.43.67.72.21.29.52.82.95,1.57.99,1.72,1.74,2.98,2.24,3.77.5.79.92,1.36,1.24,1.71.26.29.51.48.75.58.24.1.56.16.96.17l.02.34-4.85.34c-.28-.52-.46-.85-.54-.99l-1.19-2.25c-.71-1.35-1.42-2.54-2.11-3.57-.7-1.02-1.32-1.7-1.86-2.06-.28-.18-.57-.29-.88-.36-.31-.06-.68-.08-1.12-.05l-.72.05Zm-.02-.32l.55-.04c1.21-.08,2.07-.21,2.58-.39.51-.17.98-.49,1.41-.95.96-1.04,1.38-2.29,1.28-3.73-.05-.77-.25-1.48-.6-2.14-.34-.66-.79-1.19-1.35-1.59-.43-.3-.94-.5-1.51-.59s-1.38-.1-2.42-.03l-.6.04.66,9.41Z"/>
    </g>
  </g>
</svg>